{
  "source": "C:\\Users\\Peter\\Desktop\\stuff\\MIUN\\quantitative_research\\video_compression\\videos\\UVG\\ShakeNDry_1920x1080_120fps_420_8bit_YUV.y4m",
  "output": "C:\\Users\\Peter\\Desktop\\stuff\\MIUN\\quantitative_research\\video_compression\\compressed_videos\\UVG\\hevc\\2.5\\ShakeNDry_1920x1080_120fps_420_8bit_YUV_hevc.mp4",
  "codec": "hevc",
  "ok": "[yuv4mpegpipe @ 000002503a326740] Stream #0: not enough frames to estimate rate; consider increasing probesize\nInput #0, yuv4mpegpipe, from 'C:\\Users\\Peter\\Desktop\\stuff\\MIUN\\quantitative_research\\video_compression\\videos\\UVG\\ShakeNDry_1920x1080_120fps_420_8bit_YUV.y4m':\n  Duration: 00:00:02.50, start: 0.000000, bitrate: 2985989 kb/s\n  Stream #0:0: Video: rawvideo (I420 / 0x30323449), yuv420p(progressive), 1920x1080, 120 fps, 120 tbr, 120 tbn\n[out#0/mp4 @ 000002503a329ac0] Codec AVOption b:a (set bitrate (in bits/s)) has not been used for any stream. The most likely reason is either wrong type (e.g. a video option with no video streams) or that it is a private option of some decoder which was not actually used for any stream.\nStream mapping:\n  Stream #0:0 -> #0:0 (rawvideo (native) -> hevc (libx265))\nPress [q] to stop, [?] for help\n[libx265 @ 000002503a32cb00] Unknown option: \"aq-mode.\nx265 [info]: HEVC encoder version 4.1+190-8f11c33ac\nx265 [info]: build info [Windows][GCC 15.1.0][64 bit] 10bit\nx265 [info]: using cpu capabilities: MMX2 SSE2Fast LZCNT SSSE3 SSE4.2 AVX FMA3 BMI2 AVX2\nx265 [info]: Main 10 profile, Level-5 (Main tier)\nx265 [info]: Thread pool created using 12 threads\nx265 [info]: Slices                              : 1\nx265 [info]: frame threads / pool features       : 3 / wpp(17 rows)\nx265 [info]: Coding QT: max CU size, min CU size : 64 / 8\nx265 [info]: Residual QT: max TU size, max depth : 32 / 1 inter / 1 intra\nx265 [info]: ME / range / subpel / merge         : star / 57 / 3 / 3\nx265 [info]: Keyframe min / max / scenecut / bias  : 25 / 250 / 40 / 5.00 \nx265 [info]: Lookahead / bframes / badapt        : 25 / 4 / 2\nx265 [info]: b-pyramid / weightp / weightb       : 1 / 1 / 0\nx265 [info]: References / ref-limit  cu / depth  : 4 / on / on\nx265 [info]: AQ: mode / str / qg-size / cu-tree  : 2 / 1.0 / 32 / 1\nx265 [info]: Rate Control / qCompress            : ABR-2500 kbps / 0.60\nx265 [info]: VBV/HRD buffer / max-rate / init    : 2500 / 2500 / 0.750\nx265 [info]: tools: rect limit-modes rd=4 psy-rd=2.00 rdoq=2 psy-rdoq=1.00\nx265 [info]: tools: rskip mode=1 signhide tmvp strong-intra-smoothing lslices=4\nx265 [info]: tools: deblock sao dhdr10-info\nOutput #0, mp4, to 'C:\\Users\\Peter\\Desktop\\stuff\\MIUN\\quantitative_research\\video_compression\\compressed_videos\\UVG\\hevc\\2.5\\ShakeNDry_1920x1080_120fps_420_8bit_YUV_hevc.mp4':\n  Metadata:\n    encoder         : Lavf62.3.100\n  Stream #0:0: Video: hevc (hev1 / 0x31766568), yuv420p10le(tv, progressive), 1920x1080, q=2-31, 2500 kb/s, 120 fps, 15360 tbn\n    Metadata:\n      encoder         : Lavc62.11.100 libx265\n    Side data:\n      cpb: bitrate max/min/avg: 2500000/0/2500000 buffer size: 2500000 vbv_delay: N/A\nframe=    0 fps=0.0 q=0.0 size=       0KiB time=N/A bitrate=N/A speed=N/A elapsed=0:00:00.51    \nframe=    0 fps=0.0 q=0.0 size=       0KiB time=N/A bitrate=N/A speed=N/A elapsed=0:00:01.03    \nframe=    0 fps=0.0 q=0.0 size=       0KiB time=N/A bitrate=N/A speed=N/A elapsed=0:00:01.54    \nframe=    0 fps=0.0 q=0.0 size=       0KiB time=N/A bitrate=N/A speed=N/A elapsed=0:00:02.05    \nframe=    0 fps=0.0 q=0.0 size=       0KiB time=N/A bitrate=N/A speed=N/A elapsed=0:00:02.58    \nframe=    0 fps=0.0 q=0.0 size=       0KiB time=N/A bitrate=N/A speed=N/A elapsed=0:00:03.09    \nframe=    0 fps=0.0 q=0.0 size=       0KiB time=N/A bitrate=N/A speed=N/A elapsed=0:00:03.62    \nframe=    0 fps=0.0 q=0.0 size=       0KiB time=N/A bitrate=N/A speed=N/A elapsed=0:00:04.14    \nframe=    1 fps=0.2 q=49.5 size=       0KiB time=-00:00:00.00 bitrate=N/A speed=N/A elapsed=0:00:04.66    \nframe=    2 fps=0.4 q=51.0 size=       0KiB time=00:00:00.00 bitrate=N/A speed=   0x elapsed=0:00:05.18    \nframe=    4 fps=0.7 q=51.0 size=       0KiB time=00:00:00.01 bitrate=  21.1kbits/s speed=0.00292x elapsed=0:00:05.70    \nframe=    5 fps=0.8 q=51.0 size=       0KiB time=00:00:00.02 bitrate=  14.1kbits/s speed=0.00401x elapsed=0:00:06.23    \nframe=    5 fps=0.7 q=51.0 size=       0KiB time=00:00:00.02 bitrate=  14.1kbits/s speed=0.00371x elapsed=0:00:06.74    \nframe=    7 fps=1.0 q=47.0 size=       0KiB time=00:00:00.04 bitrate=   8.4kbits/s speed=0.00574x elapsed=0:00:07.26    \nframe=    7 fps=0.9 q=47.0 size=       0KiB time=00:00:00.04 bitrate=   8.4kbits/s speed=0.00536x elapsed=0:00:07.77    \nframe=    8 fps=1.0 q=50.7 size=       0KiB time=00:00:00.05 bitrate=   7.0kbits/s speed=0.00603x elapsed=0:00:08.29    \nframe=    9 fps=1.0 q=49.6 size=       0KiB time=00:00:00.05 bitrate=   6.0kbits/s speed=0.00662x elapsed=0:00:08.81    \nframe=    9 fps=1.0 q=49.6 size=       0KiB time=00:00:00.05 bitrate=   6.0kbits/s speed=0.00624x elapsed=0:00:09.34    \nframe=    9 fps=0.9 q=49.6 size=       0KiB time=00:00:00.05 bitrate=   6.0kbits/s speed=0.00592x elapsed=0:00:09.86    \nframe=   10 fps=1.0 q=49.2 size=       0KiB time=00:00:00.06 bitrate=   5.3kbits/s speed=0.00642x elapsed=0:00:10.37    \nframe=   11 fps=1.0 q=48.2 size=       0KiB time=00:00:00.07 bitrate=   4.7kbits/s speed=0.00689x elapsed=0:00:10.88    \nframe=   12 fps=1.1 q=41.4 size=       0KiB time=00:00:00.08 bitrate=   4.2kbits/s speed=0.00731x elapsed=0:00:11.40    \nframe=   13 fps=1.1 q=49.6 size=       0KiB time=00:00:00.09 bitrate=   3.8kbits/s speed=0.00769x elapsed=0:00:11.91    \nframe=   14 fps=1.1 q=49.7 size=       0KiB time=00:00:00.10 bitrate=   3.5kbits/s speed=0.00804x elapsed=0:00:12.44    \nframe=   15 fps=1.2 q=49.6 size=       0KiB time=00:00:00.10 bitrate=   3.2kbits/s speed=0.00835x elapsed=0:00:12.97    \nframe=   16 fps=1.2 q=49.7 size=       0KiB time=00:00:00.11 bitrate=   3.0kbits/s speed=0.00864x elapsed=0:00:13.50    \nframe=   17 fps=1.2 q=46.2 size=       0KiB time=00:00:00.12 bitrate=   2.8kbits/s speed=0.00891x elapsed=0:00:14.02    \nframe=   19 fps=1.3 q=48.7 size=       0KiB time=00:00:00.14 bitrate=   2.5kbits/s speed=0.00974x elapsed=0:00:14.55    \nframe=   20 fps=1.3 q=48.5 size=       0KiB time=00:00:00.15 bitrate=   2.3kbits/s speed=0.00996x elapsed=0:00:15.06    \nframe=   20 fps=1.3 q=48.5 size=       0KiB time=00:00:00.15 bitrate=   2.3kbits/s speed=0.00963x elapsed=0:00:15.57    \nframe=   21 fps=1.3 q=48.6 size=       0KiB time=00:00:00.15 bitrate=   2.2kbits/s speed=0.00984x elapsed=0:00:16.09    \nframe=   22 fps=1.3 q=43.4 size=       0KiB time=00:00:00.16 bitrate=   2.1kbits/s speed=0.01x elapsed=0:00:16.62    \nframe=   23 fps=1.3 q=47.5 size=       0KiB time=00:00:00.17 bitrate=   2.0kbits/s speed=0.0102x elapsed=0:00:17.13    \nframe=   24 fps=1.4 q=47.7 size=       0KiB time=00:00:00.18 bitrate=   1.9kbits/s speed=0.0104x elapsed=0:00:17.64    \nframe=   24 fps=1.3 q=47.7 size=       0KiB time=00:00:00.18 bitrate=   1.9kbits/s speed=0.0101x elapsed=0:00:18.17    \nframe=   25 fps=1.3 q=45.4 size=       0KiB time=00:00:00.19 bitrate=   1.8kbits/s speed=0.0103x elapsed=0:00:18.69    \nframe=   26 fps=1.4 q=45.4 size=       0KiB time=00:00:00.20 bitrate=   1.8kbits/s speed=0.0104x elapsed=0:00:19.20    \nframe=   27 fps=1.4 q=40.0 size=       0KiB time=00:00:00.20 bitrate=   1.7kbits/s speed=0.0106x elapsed=0:00:19.72    \nframe=   28 fps=1.4 q=45.3 size=       0KiB time=00:00:00.21 bitrate=   1.6kbits/s speed=0.0107x elapsed=0:00:20.23    \nframe=   29 fps=1.4 q=45.5 size=       0KiB time=00:00:00.22 bitrate=   1.6kbits/s speed=0.0108x elapsed=0:00:20.74    \nframe=   29 fps=1.4 q=45.5 size=       0KiB time=00:00:00.22 bitrate=   1.6kbits/s speed=0.0106x elapsed=0:00:21.26    \nframe=   29 fps=1.3 q=45.5 size=       0KiB time=00:00:00.22 bitrate=   1.6kbits/s speed=0.0103x elapsed=0:00:21.77    \nframe=   30 fps=1.3 q=46.2 size=       0KiB time=00:00:00.23 bitrate=   1.5kbits/s speed=0.0105x elapsed=0:00:22.29    \nframe=   31 fps=1.4 q=46.4 size=       0KiB time=00:00:00.24 bitrate=   1.5kbits/s speed=0.0106x elapsed=0:00:22.83    \nframe=   31 fps=1.3 q=46.4 size=       0KiB time=00:00:00.24 bitrate=   1.5kbits/s speed=0.0103x elapsed=0:00:23.36    \nframe=   32 fps=1.3 q=41.0 size=       0KiB time=00:00:00.25 bitrate=   1.4kbits/s speed=0.0105x elapsed=0:00:23.87    \nframe=   34 fps=1.4 q=46.2 size=       0KiB time=00:00:00.26 bitrate=   1.3kbits/s speed=0.0109x elapsed=0:00:24.38    \nframe=   35 fps=1.4 q=45.5 size=       0KiB time=00:00:00.27 bitrate=   1.3kbits/s speed=0.011x elapsed=0:00:24.90    \nframe=   35 fps=1.4 q=45.5 size=       0KiB time=00:00:00.27 bitrate=   1.3kbits/s speed=0.0108x elapsed=0:00:25.44    \nframe=   36 fps=1.4 q=45.6 size=       0KiB time=00:00:00.28 bitrate=   1.2kbits/s speed=0.0109x elapsed=0:00:25.96    \nframe=   36 fps=1.4 q=45.6 size=       0KiB time=00:00:00.28 bitrate=   1.2kbits/s speed=0.0107x elapsed=0:00:26.48    \nframe=   36 fps=1.3 q=45.6 size=       0KiB time=00:00:00.28 bitrate=   1.2kbits/s speed=0.0105x elapsed=0:00:26.99    \nframe=   37 fps=1.3 q=40.9 size=       0KiB time=00:00:00.29 bitrate=   1.2kbits/s speed=0.0106x elapsed=0:00:27.50    \nframe=   38 fps=1.4 q=44.5 size=       0KiB time=00:00:00.30 bitrate=   1.2kbits/s speed=0.0107x elapsed=0:00:28.02    \nframe=   38 fps=1.3 q=44.5 size=       0KiB time=00:00:00.30 bitrate=   1.2kbits/s speed=0.0105x elapsed=0:00:28.54    \nframe=   39 fps=1.3 q=45.5 size=       0KiB time=00:00:00.30 bitrate=   1.1kbits/s speed=0.0106x elapsed=0:00:29.06    \nframe=   40 fps=1.4 q=45.4 size=       0KiB time=00:00:00.31 bitrate=   1.1kbits/s speed=0.0107x elapsed=0:00:29.58    \nframe=   42 fps=1.4 q=40.1 size=       0KiB time=00:00:00.33 bitrate=   1.1kbits/s speed=0.0111x elapsed=0:00:30.09    \nframe=   43 fps=1.4 q=44.4 size=       0KiB time=00:00:00.34 bitrate=   1.0kbits/s speed=0.0112x elapsed=0:00:30.60    \nframe=   44 fps=1.4 q=45.5 size=       0KiB time=00:00:00.35 bitrate=   1.0kbits/s speed=0.0112x elapsed=0:00:31.13    \nframe=   45 fps=1.4 q=45.3 size=       0KiB time=00:00:00.35 bitrate=   1.0kbits/s speed=0.0113x elapsed=0:00:31.63    \nframe=   47 fps=1.5 q=40.6 size=       0KiB time=00:00:00.37 bitrate=   0.9kbits/s speed=0.0117x elapsed=0:00:32.15    \nframe=   48 fps=1.5 q=44.3 size=       0KiB time=00:00:00.38 bitrate=   0.9kbits/s speed=0.0117x elapsed=0:00:32.66    \nframe=   49 fps=1.5 q=45.6 size=       0KiB time=00:00:00.39 bitrate=   0.9kbits/s speed=0.0118x elapsed=0:00:33.18    \nframe=   50 fps=1.5 q=45.2 size=       0KiB time=00:00:00.40 bitrate=   0.9kbits/s speed=0.0119x elapsed=0:00:33.70    \nframe=   52 fps=1.5 q=40.8 size=       0KiB time=00:00:00.41 bitrate=   0.8kbits/s speed=0.0122x elapsed=0:00:34.22    \nframe=   53 fps=1.5 q=44.2 size=       0KiB time=00:00:00.42 bitrate=   0.8kbits/s speed=0.0122x elapsed=0:00:34.72    \nframe=   54 fps=1.5 q=45.4 size=       0KiB time=00:00:00.43 bitrate=   0.8kbits/s speed=0.0123x elapsed=0:00:35.24    \nframe=   55 fps=1.5 q=45.3 size=       0KiB time=00:00:00.44 bitrate=   0.8kbits/s speed=0.0123x elapsed=0:00:35.76    \nframe=   57 fps=1.6 q=40.8 size=       0KiB time=00:00:00.45 bitrate=   0.8kbits/s speed=0.0126x elapsed=0:00:36.27    \nframe=   58 fps=1.6 q=44.2 size=       0KiB time=00:00:00.46 bitrate=   0.8kbits/s speed=0.0127x elapsed=0:00:36.80    \nframe=   59 fps=1.6 q=45.4 size=       0KiB time=00:00:00.47 bitrate=   0.7kbits/s speed=0.0127x elapsed=0:00:37.31    \nframe=   60 fps=1.6 q=45.2 size=       0KiB time=00:00:00.48 bitrate=   0.7kbits/s speed=0.0128x elapsed=0:00:37.82    \nframe=   62 fps=1.6 q=40.2 size=       0KiB time=00:00:00.50 bitrate=   0.7kbits/s speed=0.013x elapsed=0:00:38.35    \nframe=   63 fps=1.6 q=44.1 size=       0KiB time=00:00:00.50 bitrate=   0.7kbits/s speed=0.0131x elapsed=0:00:38.87    \nframe=   64 fps=1.6 q=45.5 size=       0KiB time=00:00:00.51 bitrate=   0.7kbits/s speed=0.0131x elapsed=0:00:39.38    \nframe=   65 fps=1.6 q=45.3 size=       0KiB time=00:00:00.52 bitrate=   0.7kbits/s speed=0.0132x elapsed=0:00:39.90    \nframe=   67 fps=1.7 q=41.3 size=       0KiB time=00:00:00.54 bitrate=   0.6kbits/s speed=0.0134x elapsed=0:00:40.41    \nframe=   68 fps=1.7 q=44.0 size=       0KiB time=00:00:00.55 bitrate=   0.6kbits/s speed=0.0134x elapsed=0:00:40.94    \nframe=   69 fps=1.7 q=45.3 size=       0KiB time=00:00:00.55 bitrate=   0.6kbits/s speed=0.0135x elapsed=0:00:41.46    \nframe=   71 fps=1.7 q=45.2 size=       0KiB time=00:00:00.57 bitrate=   0.6kbits/s speed=0.0137x elapsed=0:00:41.98    \nframe=   72 fps=1.7 q=39.9 size=       0KiB time=00:00:00.58 bitrate=   0.6kbits/s speed=0.0137x elapsed=0:00:42.49    \nframe=   73 fps=1.7 q=43.5 size=       0KiB time=00:00:00.59 bitrate=   0.6kbits/s speed=0.0138x elapsed=0:00:43.01    \nframe=   75 fps=1.7 q=45.2 size=       0KiB time=00:00:00.60 bitrate=   0.6kbits/s speed=0.014x elapsed=0:00:43.53    \nframe=   76 fps=1.7 q=45.1 size=       0KiB time=00:00:00.61 bitrate=   0.6kbits/s speed=0.014x elapsed=0:00:44.04    \nframe=   77 fps=1.7 q=40.2 size=       0KiB time=00:00:00.62 bitrate=   0.6kbits/s speed=0.014x elapsed=0:00:44.56    \nframe=   79 fps=1.8 q=45.2 size=       0KiB time=00:00:00.64 bitrate=   0.5kbits/s speed=0.0142x elapsed=0:00:45.08    \nframe=   80 fps=1.8 q=45.1 size=       0KiB time=00:00:00.65 bitrate=   0.5kbits/s speed=0.0143x elapsed=0:00:45.59    \nframe=   81 fps=1.8 q=45.2 size=       0KiB time=00:00:00.65 bitrate=   0.5kbits/s speed=0.0143x elapsed=0:00:46.10    \nframe=   83 fps=1.8 q=43.2 size=       0KiB time=00:00:00.67 bitrate=   0.5kbits/s speed=0.0145x elapsed=0:00:46.61    \nframe=   84 fps=1.8 q=45.1 size=       0KiB time=00:00:00.68 bitrate=   0.5kbits/s speed=0.0145x elapsed=0:00:47.14    \nframe=   85 fps=1.8 q=44.5 size=       0KiB time=00:00:00.69 bitrate=   0.5kbits/s speed=0.0145x elapsed=0:00:47.65    \nframe=   87 fps=1.8 q=39.3 size=       0KiB time=00:00:00.70 bitrate=   0.5kbits/s speed=0.0147x elapsed=0:00:48.16    \nframe=   88 fps=1.8 q=43.4 size=       0KiB time=00:00:00.71 bitrate=   0.5kbits/s speed=0.0147x elapsed=0:00:48.69    \nframe=   90 fps=1.8 q=44.4 size=       0KiB time=00:00:00.73 bitrate=   0.5kbits/s speed=0.0149x elapsed=0:00:49.22    \nframe=   91 fps=1.8 q=44.6 size=       0KiB time=00:00:00.74 bitrate=   0.5kbits/s speed=0.0149x elapsed=0:00:49.72    \nframe=   92 fps=1.8 q=39.6 size=       0KiB time=00:00:00.75 bitrate=   0.5kbits/s speed=0.0149x elapsed=0:00:50.24    \nframe=   93 fps=1.8 q=43.1 size=       0KiB time=00:00:00.75 bitrate=   0.5kbits/s speed=0.0149x elapsed=0:00:50.76    \nframe=   94 fps=1.8 q=44.6 size=       0KiB time=00:00:00.76 bitrate=   0.5kbits/s speed=0.0149x elapsed=0:00:51.28    \nframe=   96 fps=1.9 q=44.3 size=       0KiB time=00:00:00.78 bitrate=   0.4kbits/s speed=0.0151x elapsed=0:00:51.79    \nframe=   97 fps=1.9 q=39.2 size=       0KiB time=00:00:00.79 bitrate=   0.4kbits/s speed=0.0151x elapsed=0:00:52.31    \nframe=   99 fps=1.9 q=44.2 size=       0KiB time=00:00:00.80 bitrate=   0.4kbits/s speed=0.0153x elapsed=0:00:52.82    \nframe=  100 fps=1.9 q=44.3 size=       0KiB time=00:00:00.81 bitrate=   0.4kbits/s speed=0.0153x elapsed=0:00:53.34    \nframe=  101 fps=1.9 q=44.2 size=       0KiB time=00:00:00.82 bitrate=   0.4kbits/s speed=0.0153x elapsed=0:00:53.85    \nframe=  103 fps=1.9 q=42.8 size=       0KiB time=00:00:00.84 bitrate=   0.4kbits/s speed=0.0155x elapsed=0:00:54.37    \nframe=  104 fps=1.9 q=44.3 size=       0KiB time=00:00:00.85 bitrate=   0.4kbits/s speed=0.0155x elapsed=0:00:54.89    \nframe=  105 fps=1.9 q=44.3 size=       0KiB time=00:00:00.85 bitrate=   0.4kbits/s speed=0.0155x elapsed=0:00:55.39    \nframe=  107 fps=1.9 q=38.4 size=       0KiB time=00:00:00.87 bitrate=   0.4kbits/s speed=0.0156x elapsed=0:00:55.92    \nframe=  109 fps=1.9 q=44.3 size=     256KiB time=00:00:00.89 bitrate=2352.3kbits/s speed=0.0158x elapsed=0:00:56.43    \nframe=  110 fps=1.9 q=44.1 size=     256KiB time=00:00:00.90 bitrate=2330.6kbits/s speed=0.0158x elapsed=0:00:56.95    \nframe=  111 fps=1.9 q=44.3 size=     256KiB time=00:00:00.90 bitrate=2309.2kbits/s speed=0.0158x elapsed=0:00:57.47    \nframe=  113 fps=1.9 q=42.4 size=     256KiB time=00:00:00.92 bitrate=2267.6kbits/s speed=0.0159x elapsed=0:00:57.99    \nframe=  114 fps=1.9 q=44.3 size=     256KiB time=00:00:00.93 bitrate=2247.3kbits/s speed=0.0159x elapsed=0:00:58.52    \nframe=  116 fps=2.0 q=43.5 size=     256KiB time=00:00:00.95 bitrate=2207.9kbits/s speed=0.0161x elapsed=0:00:59.03    \nframe=  117 fps=2.0 q=37.7 size=     256KiB time=00:00:00.95 bitrate=2188.7kbits/s speed=0.0161x elapsed=0:00:59.54    \nframe=  119 fps=2.0 q=43.3 size=     256KiB time=00:00:00.97 bitrate=2151.3kbits/s speed=0.0162x elapsed=0:01:00.05    \nframe=  120 fps=2.0 q=43.4 size=     256KiB time=00:00:00.98 bitrate=2133.1kbits/s speed=0.0162x elapsed=0:01:00.58    \nframe=  121 fps=2.0 q=43.4 size=     256KiB time=00:00:00.99 bitrate=2115.1kbits/s speed=0.0162x elapsed=0:01:01.11    \nframe=  123 fps=2.0 q=42.2 size=     256KiB time=00:00:01.00 bitrate=2080.2kbits/s speed=0.0164x elapsed=0:01:01.62    \nframe=  124 fps=2.0 q=43.4 size=     256KiB time=00:00:01.01 bitrate=2063.1kbits/s speed=0.0164x elapsed=0:01:02.14    \nframe=  125 fps=2.0 q=43.4 size=     256KiB time=00:00:01.02 bitrate=2046.3kbits/s speed=0.0164x elapsed=0:01:02.65    \nframe=  126 fps=2.0 q=43.4 size=     256KiB time=00:00:01.03 bitrate=2029.8kbits/s speed=0.0164x elapsed=0:01:03.16    \nframe=  128 fps=2.0 q=42.0 size=     256KiB time=00:00:01.05 bitrate=1997.6kbits/s speed=0.0165x elapsed=0:01:03.69    \nframe=  128 fps=2.0 q=42.0 size=     256KiB time=00:00:01.05 bitrate=1997.6kbits/s speed=0.0163x elapsed=0:01:04.22    \nframe=  129 fps=2.0 q=43.5 size=     256KiB time=00:00:01.05 bitrate=1981.9kbits/s speed=0.0163x elapsed=0:01:04.75    \nframe=  130 fps=2.0 q=43.4 size=     256KiB time=00:00:01.06 bitrate=1966.4kbits/s speed=0.0163x elapsed=0:01:05.25    \nframe=  131 fps=2.0 q=43.4 size=     256KiB time=00:00:01.07 bitrate=1951.2kbits/s speed=0.0163x elapsed=0:01:05.78    \nframe=  131 fps=2.0 q=43.4 size=     256KiB time=00:00:01.07 bitrate=1951.2kbits/s speed=0.0162x elapsed=0:01:06.29    \nframe=  132 fps=2.0 q=38.0 size=     256KiB time=00:00:01.08 bitrate=1936.2kbits/s speed=0.0162x elapsed=0:01:06.81    \nframe=  133 fps=2.0 q=42.1 size=     256KiB time=00:00:01.09 bitrate=1921.4kbits/s speed=0.0162x elapsed=0:01:07.32    \nframe=  134 fps=2.0 q=43.4 size=     256KiB time=00:00:01.10 bitrate=1906.8kbits/s speed=0.0162x elapsed=0:01:07.83    \nframe=  134 fps=2.0 q=43.4 size=     256KiB time=00:00:01.10 bitrate=1906.8kbits/s speed=0.0161x elapsed=0:01:08.36    \nframe=  134 fps=1.9 q=43.4 size=     256KiB time=00:00:01.10 bitrate=1906.8kbits/s speed=0.016x elapsed=0:01:08.87    \nframe=  135 fps=1.9 q=43.1 size=     256KiB time=00:00:01.10 bitrate=1892.5kbits/s speed=0.016x elapsed=0:01:09.41    \nframe=  136 fps=1.9 q=43.3 size=     256KiB time=00:00:01.11 bitrate=1878.4kbits/s speed=0.016x elapsed=0:01:09.94    \nframe=  137 fps=1.9 q=37.1 size=     256KiB time=00:00:01.12 bitrate=1864.4kbits/s speed=0.016x elapsed=0:01:10.45    \nframe=  138 fps=1.9 q=41.3 size=     256KiB time=00:00:01.13 bitrate=1850.7kbits/s speed=0.016x elapsed=0:01:10.97    \nframe=  139 fps=1.9 q=42.5 size=     256KiB time=00:00:01.14 bitrate=1837.2kbits/s speed=0.016x elapsed=0:01:11.48    \nframe=  140 fps=1.9 q=42.1 size=     256KiB time=00:00:01.15 bitrate=1823.9kbits/s speed=0.016x elapsed=0:01:11.99    \nframe=  140 fps=1.9 q=42.1 size=     256KiB time=00:00:01.15 bitrate=1823.9kbits/s speed=0.0159x elapsed=0:01:12.52    \nframe=  141 fps=1.9 q=42.1 size=     256KiB time=00:00:01.15 bitrate=1810.8kbits/s speed=0.0159x elapsed=0:01:13.03    \nframe=  141 fps=1.9 q=42.1 size=     256KiB time=00:00:01.15 bitrate=1810.8kbits/s speed=0.0158x elapsed=0:01:13.54    \nframe=  143 fps=1.9 q=41.2 size=     256KiB time=00:00:01.17 bitrate=1785.1kbits/s speed=0.0159x elapsed=0:01:14.05    \nframe=  144 fps=1.9 q=41.4 size=     256KiB time=00:00:01.18 bitrate=1772.5kbits/s speed=0.0159x elapsed=0:01:14.57    \nframe=  144 fps=1.9 q=41.4 size=     256KiB time=00:00:01.18 bitrate=1772.5kbits/s speed=0.0158x elapsed=0:01:15.09    \nframe=  145 fps=1.9 q=41.5 size=     256KiB time=00:00:01.19 bitrate=1760.1kbits/s speed=0.0158x elapsed=0:01:15.60    \nframe=  146 fps=1.9 q=41.5 size=     256KiB time=00:00:01.20 bitrate=1747.9kbits/s speed=0.0158x elapsed=0:01:16.13    \nframe=  147 fps=1.9 q=35.7 size=     256KiB time=00:00:01.20 bitrate=1735.9kbits/s speed=0.0158x elapsed=0:01:16.65    \nframe=  148 fps=1.9 q=41.1 size=     256KiB time=00:00:01.21 bitrate=1724.0kbits/s speed=0.0158x elapsed=0:01:17.16    \nframe=  149 fps=1.9 q=41.3 size=     256KiB time=00:00:01.22 bitrate=1712.2kbits/s speed=0.0158x elapsed=0:01:17.69    \nframe=  149 fps=1.9 q=41.3 size=     256KiB time=00:00:01.22 bitrate=1712.2kbits/s speed=0.0157x elapsed=0:01:18.20    \nframe=  150 fps=1.9 q=41.3 size=     256KiB time=00:00:01.23 bitrate=1700.7kbits/s speed=0.0157x elapsed=0:01:18.73    \nframe=  151 fps=1.9 q=41.5 size=     256KiB time=00:00:01.24 bitrate=1689.3kbits/s speed=0.0157x elapsed=0:01:19.25    \nframe=  152 fps=1.9 q=35.8 size=     256KiB time=00:00:01.25 bitrate=1678.0kbits/s speed=0.0157x elapsed=0:01:19.77    \nframe=  153 fps=1.9 q=40.5 size=     256KiB time=00:00:01.25 bitrate=1666.9kbits/s speed=0.0157x elapsed=0:01:20.29    \nframe=  154 fps=1.9 q=41.2 size=     256KiB time=00:00:01.26 bitrate=1655.9kbits/s speed=0.0157x elapsed=0:01:20.82    \nframe=  155 fps=1.9 q=41.1 size=     256KiB time=00:00:01.27 bitrate=1645.1kbits/s speed=0.0157x elapsed=0:01:21.33    \nframe=  157 fps=1.9 q=35.0 size=     256KiB time=00:00:01.29 bitrate=1623.9kbits/s speed=0.0158x elapsed=0:01:21.85    \nframe=  159 fps=1.9 q=40.5 size=     256KiB time=00:00:01.30 bitrate=1603.2kbits/s speed=0.0159x elapsed=0:01:22.37    \nframe=  160 fps=1.9 q=40.4 size=     256KiB time=00:00:01.31 bitrate=1593.0kbits/s speed=0.0159x elapsed=0:01:22.88    \nframe=  161 fps=1.9 q=40.3 size=     256KiB time=00:00:01.32 bitrate=1583.0kbits/s speed=0.0159x elapsed=0:01:23.40    \nframe=  161 fps=1.9 q=40.3 size=     256KiB time=00:00:01.32 bitrate=1583.0kbits/s speed=0.0158x elapsed=0:01:23.93    \nframe=  163 fps=1.9 q=40.2 size=     256KiB time=00:00:01.34 bitrate=1563.4kbits/s speed=0.0159x elapsed=0:01:24.47    \nframe=  163 fps=1.9 q=40.2 size=     256KiB time=00:00:01.34 bitrate=1563.4kbits/s speed=0.0158x elapsed=0:01:24.98    \nframe=  164 fps=1.9 q=40.3 size=     256KiB time=00:00:01.35 bitrate=1553.7kbits/s speed=0.0158x elapsed=0:01:25.50    \nframe=  165 fps=1.9 q=40.4 size=     256KiB time=00:00:01.35 bitrate=1544.2kbits/s speed=0.0158x elapsed=0:01:26.00    \nframe=  167 fps=1.9 q=34.4 size=     256KiB time=00:00:01.37 bitrate=1525.5kbits/s speed=0.0159x elapsed=0:01:26.53    \nframe=  168 fps=1.9 q=40.4 size=     256KiB time=00:00:01.38 bitrate=1516.3kbits/s speed=0.0159x elapsed=0:01:27.04    \nframe=  169 fps=1.9 q=40.5 size=     256KiB time=00:00:01.39 bitrate=1507.2kbits/s speed=0.0159x elapsed=0:01:27.55    \nframe=  170 fps=1.9 q=40.4 size=     256KiB time=00:00:01.40 bitrate=1498.2kbits/s speed=0.0159x elapsed=0:01:28.07    \nframe=  170 fps=1.9 q=40.4 size=     256KiB time=00:00:01.40 bitrate=1498.2kbits/s speed=0.0158x elapsed=0:01:28.58    \nframe=  170 fps=1.9 q=40.4 size=     256KiB time=00:00:01.40 bitrate=1498.2kbits/s speed=0.0157x elapsed=0:01:29.10    \nframe=  174 fps=1.9 q=40.6 size=     256KiB time=00:00:01.43 bitrate=1463.4kbits/s speed=0.016x elapsed=0:01:29.63    \nframe=  175 fps=1.9 q=40.3 size=     256KiB time=00:00:01.44 bitrate=1454.9kbits/s speed=0.016x elapsed=0:01:30.16    \nframe=  175 fps=1.9 q=40.3 size=     256KiB time=00:00:01.44 bitrate=1454.9kbits/s speed=0.0159x elapsed=0:01:30.70    \nframe=  175 fps=1.9 q=40.3 size=     256KiB time=00:00:01.44 bitrate=1454.9kbits/s speed=0.0158x elapsed=0:01:31.22    \nframe=  175 fps=1.9 q=40.3 size=     256KiB time=00:00:01.44 bitrate=1454.9kbits/s speed=0.0157x elapsed=0:01:31.75    \nframe=  175 fps=1.9 q=40.3 size=     256KiB time=00:00:01.44 bitrate=1454.9kbits/s speed=0.0156x elapsed=0:01:32.26    \nframe=  176 fps=1.9 q=40.1 size=     256KiB time=00:00:01.45 bitrate=1446.6kbits/s speed=0.0156x elapsed=0:01:32.77    \nframe=  176 fps=1.9 q=40.1 size=     256KiB time=00:00:01.45 bitrate=1446.6kbits/s speed=0.0155x elapsed=0:01:33.29    \nframe=  176 fps=1.9 q=40.1 size=     256KiB time=00:00:01.45 bitrate=1446.6kbits/s speed=0.0155x elapsed=0:01:33.81    \nframe=  178 fps=1.9 q=39.3 size=     256KiB time=00:00:01.46 bitrate=1430.1kbits/s speed=0.0155x elapsed=0:01:34.32    \nframe=  179 fps=1.9 q=40.5 size=     256KiB time=00:00:01.47 bitrate=1422.0kbits/s speed=0.0156x elapsed=0:01:34.84    \nframe=  181 fps=1.9 q=40.2 size=     256KiB time=00:00:01.49 bitrate=1406.1kbits/s speed=0.0156x elapsed=0:01:35.36    \nframe=  182 fps=1.9 q=34.6 size=     256KiB time=00:00:01.50 bitrate=1398.3kbits/s speed=0.0156x elapsed=0:01:35.87    \nframe=  184 fps=1.9 q=40.3 size=     256KiB time=00:00:01.51 bitrate=1383.0kbits/s speed=0.0157x elapsed=0:01:36.38    \nframe=  185 fps=1.9 q=39.4 size=     256KiB time=00:00:01.52 bitrate=1375.4kbits/s speed=0.0157x elapsed=0:01:36.90    \nframe=  187 fps=1.9 q=34.1 size=     256KiB time=00:00:01.54 bitrate=1360.5kbits/s speed=0.0158x elapsed=0:01:37.42    \nframe=  189 fps=1.9 q=39.8 size=     256KiB time=00:00:01.55 bitrate=1346.0kbits/s speed=0.0159x elapsed=0:01:37.93    \nframe=  191 fps=1.9 q=39.6 size=     256KiB time=00:00:01.57 bitrate=1331.7kbits/s speed=0.016x elapsed=0:01:38.45    \nframe=  193 fps=2.0 q=39.3 size=     256KiB time=00:00:01.59 bitrate=1317.8kbits/s speed=0.0161x elapsed=0:01:38.96    \nframe=  194 fps=1.9 q=40.5 size=     256KiB time=00:00:01.60 bitrate=1310.9kbits/s speed=0.0161x elapsed=0:01:39.48    \nframe=  196 fps=2.0 q=39.4 size=     256KiB time=00:00:01.61 bitrate=1297.4kbits/s speed=0.0162x elapsed=0:01:39.99    \nframe=  198 fps=2.0 q=39.2 size=     256KiB time=00:00:01.63 bitrate=1284.2kbits/s speed=0.0163x elapsed=0:01:40.51    \nframe=  200 fps=2.0 q=39.9 size=     256KiB time=00:00:01.65 bitrate=1271.2kbits/s speed=0.0163x elapsed=0:01:41.02    \nframe=  201 fps=2.0 q=39.4 size=     256KiB time=00:00:01.65 bitrate=1264.8kbits/s speed=0.0163x elapsed=0:01:41.55    \nframe=  204 fps=2.0 q=40.0 size=     256KiB time=00:00:01.68 bitrate=1246.0kbits/s speed=0.0165x elapsed=0:01:42.06    \nframe=  205 fps=2.0 q=40.3 size=     256KiB time=00:00:01.69 bitrate=1239.9kbits/s speed=0.0165x elapsed=0:01:42.58    \nframe=  207 fps=2.0 q=35.1 size=     256KiB time=00:00:01.70 bitrate=1227.8kbits/s speed=0.0166x elapsed=0:01:43.08    \nframe=  209 fps=2.0 q=40.3 size=     256KiB time=00:00:01.72 bitrate=1215.9kbits/s speed=0.0166x elapsed=0:01:43.61    \nframe=  210 fps=2.0 q=40.1 size=     256KiB time=00:00:01.73 bitrate=1210.1kbits/s speed=0.0166x elapsed=0:01:44.12    \nframe=  212 fps=2.0 q=33.9 size=     256KiB time=00:00:01.75 bitrate=1198.6kbits/s speed=0.0167x elapsed=0:01:44.64    \nframe=  214 fps=2.0 q=39.5 size=     512KiB time=00:00:01.76 bitrate=2374.3kbits/s speed=0.0168x elapsed=0:01:45.15    \nframe=  215 fps=2.0 q=39.6 size=     512KiB time=00:00:01.77 bitrate=2363.2kbits/s speed=0.0168x elapsed=0:01:45.67    \nframe=  217 fps=2.0 q=34.1 size=     512KiB time=00:00:01.79 bitrate=2341.2kbits/s speed=0.0169x elapsed=0:01:46.18    \nframe=  219 fps=2.1 q=39.6 size=     512KiB time=00:00:01.80 bitrate=2319.6kbits/s speed=0.0169x elapsed=0:01:46.69    \nframe=  221 fps=2.1 q=39.3 size=     512KiB time=00:00:01.82 bitrate=2298.4kbits/s speed=0.017x elapsed=0:01:47.22    \nframe=  223 fps=2.1 q=38.9 size=     512KiB time=00:00:01.84 bitrate=2277.6kbits/s speed=0.0171x elapsed=0:01:47.73    \nframe=  224 fps=2.1 q=39.7 size=     512KiB time=00:00:01.85 bitrate=2267.4kbits/s speed=0.0171x elapsed=0:01:48.24    \nframe=  226 fps=2.1 q=39.4 size=     512KiB time=00:00:01.86 bitrate=2247.1kbits/s speed=0.0172x elapsed=0:01:48.77    \nframe=  228 fps=2.1 q=41.5 size=     512KiB time=00:00:01.88 bitrate=2227.3kbits/s speed=0.0172x elapsed=0:01:49.28    \nframe=  229 fps=2.1 q=42.1 size=     512KiB time=00:00:01.89 bitrate=2217.4kbits/s speed=0.0172x elapsed=0:01:49.79    \nframe=  230 fps=2.1 q=42.2 size=     512KiB time=00:00:01.90 bitrate=2207.7kbits/s speed=0.0172x elapsed=0:01:50.30    \nframe=  231 fps=2.1 q=42.6 size=     512KiB time=00:00:01.90 bitrate=2198.1kbits/s speed=0.0172x elapsed=0:01:50.82    \nframe=  231 fps=2.1 q=42.6 size=     512KiB time=00:00:01.90 bitrate=2198.1kbits/s speed=0.0171x elapsed=0:01:51.33    \nframe=  233 fps=2.1 q=42.5 size=     512KiB time=00:00:01.92 bitrate=2179.0kbits/s speed=0.0172x elapsed=0:01:51.85    \nframe=  234 fps=2.1 q=43.4 size=     512KiB time=00:00:01.93 bitrate=2169.7kbits/s speed=0.0172x elapsed=0:01:52.36    \nframe=  235 fps=2.1 q=43.4 size=     512KiB time=00:00:01.94 bitrate=2160.3kbits/s speed=0.0172x elapsed=0:01:52.88    \nframe=  236 fps=2.1 q=43.4 size=     512KiB time=00:00:01.95 bitrate=2151.1kbits/s speed=0.0172x elapsed=0:01:53.41    \nframe=  237 fps=2.1 q=37.4 size=     512KiB time=00:00:01.95 bitrate=2142.0kbits/s speed=0.0172x elapsed=0:01:53.93    \nframe=  238 fps=2.1 q=42.3 size=     512KiB time=00:00:01.96 bitrate=2132.9kbits/s speed=0.0172x elapsed=0:01:54.45    \nframe=  238 fps=2.1 q=42.3 size=     512KiB time=00:00:01.96 bitrate=2132.9kbits/s speed=0.0171x elapsed=0:01:54.97    \nframe=  241 fps=2.1 q=43.5 size=     512KiB time=00:00:01.99 bitrate=2106.1kbits/s speed=0.0172x elapsed=0:01:55.50    \nframe=  242 fps=2.1 q=36.9 size=     512KiB time=00:00:02.00 bitrate=2097.3kbits/s speed=0.0172x elapsed=0:01:56.00    \nframe=  242 fps=2.1 q=36.9 size=     512KiB time=00:00:02.00 bitrate=2097.3kbits/s speed=0.0172x elapsed=0:01:56.53    \nframe=  243 fps=2.1 q=41.8 size=     512KiB time=00:00:02.00 bitrate=2088.6kbits/s speed=0.0172x elapsed=0:01:57.06    \nframe=  244 fps=2.1 q=43.2 size=     512KiB time=00:00:02.01 bitrate=2080.0kbits/s speed=0.0172x elapsed=0:01:57.58    \nframe=  245 fps=2.1 q=42.6 size=     512KiB time=00:00:02.02 bitrate=2071.4kbits/s speed=0.0171x elapsed=0:01:58.10    \nframe=  245 fps=2.1 q=42.6 size=     512KiB time=00:00:02.02 bitrate=2071.4kbits/s speed=0.0171x elapsed=0:01:58.62    \nframe=  246 fps=2.1 q=42.8 size=     512KiB time=00:00:02.03 bitrate=2062.9kbits/s speed=0.0171x elapsed=0:01:59.14    \nframe=  246 fps=2.1 q=42.8 size=     512KiB time=00:00:02.03 bitrate=2062.9kbits/s speed=0.017x elapsed=0:01:59.66    \nframe=  246 fps=2.0 q=42.8 size=     512KiB time=00:00:02.03 bitrate=2062.9kbits/s speed=0.0169x elapsed=0:02:00.17    \nframe=  247 fps=2.0 q=32.1 size=     512KiB time=00:00:02.04 bitrate=2054.5kbits/s speed=0.0169x elapsed=0:02:00.70    \nframe=  248 fps=2.0 q=42.5 size=     512KiB time=00:00:02.05 bitrate=2046.2kbits/s speed=0.0169x elapsed=0:02:01.22    \nframe=  250 fps=2.1 q=42.8 size=     512KiB time=00:00:02.06 bitrate=2029.7kbits/s speed=0.017x elapsed=0:02:01.74    \nframe=  252 fps=2.1 q=36.7 size=     512KiB time=00:00:02.08 bitrate=2013.4kbits/s speed=0.017x elapsed=0:02:02.26    \nframe=  253 fps=2.1 q=40.5 size=     512KiB time=00:00:02.09 bitrate=2005.4kbits/s speed=0.017x elapsed=0:02:02.78    \nframe=  253 fps=2.1 q=40.5 size=     512KiB time=00:00:02.09 bitrate=2005.4kbits/s speed=0.017x elapsed=0:02:03.29    \nframe=  254 fps=2.1 q=41.6 size=     512KiB time=00:00:02.10 bitrate=1997.5kbits/s speed=0.017x elapsed=0:02:03.81    \nframe=  255 fps=2.1 q=41.5 size=     512KiB time=00:00:02.10 bitrate=1989.6kbits/s speed=0.017x elapsed=0:02:04.33    \nframe=  256 fps=2.1 q=41.8 size=     512KiB time=00:00:02.11 bitrate=1981.7kbits/s speed=0.017x elapsed=0:02:04.86    \nframe=  257 fps=2.0 q=34.8 size=     512KiB time=00:00:02.12 bitrate=1974.0kbits/s speed=0.0169x elapsed=0:02:05.38    \nframe=  258 fps=2.0 q=40.3 size=     512KiB time=00:00:02.13 bitrate=1966.2kbits/s speed=0.0169x elapsed=0:02:05.90    \nframe=  259 fps=2.0 q=41.7 size=     512KiB time=00:00:02.14 bitrate=1958.6kbits/s speed=0.0169x elapsed=0:02:06.42    \nframe=  261 fps=2.1 q=40.8 size=     512KiB time=00:00:02.15 bitrate=1943.5kbits/s speed=0.017x elapsed=0:02:06.93    \nframe=  261 fps=2.0 q=40.8 size=     512KiB time=00:00:02.15 bitrate=1943.5kbits/s speed=0.0169x elapsed=0:02:07.44    \nframe=  262 fps=2.0 q=34.0 size=     512KiB time=00:00:02.16 bitrate=1936.0kbits/s speed=0.0169x elapsed=0:02:07.96    \nframe=  263 fps=2.0 q=39.4 size=     512KiB time=00:00:02.17 bitrate=1928.6kbits/s speed=0.0169x elapsed=0:02:08.48    \nframe=  265 fps=2.1 q=39.5 size=     512KiB time=00:00:02.19 bitrate=1913.9kbits/s speed=0.017x elapsed=0:02:08.99    \nframe=  266 fps=2.1 q=39.6 size=     512KiB time=00:00:02.20 bitrate=1906.7kbits/s speed=0.017x elapsed=0:02:09.51    \nframe=  268 fps=2.1 q=39.4 size=     512KiB time=00:00:02.21 bitrate=1892.3kbits/s speed=0.017x elapsed=0:02:10.02    \nframe=  268 fps=2.1 q=39.4 size=     512KiB time=00:00:02.21 bitrate=1892.3kbits/s speed=0.017x elapsed=0:02:10.55    \nframe=  270 fps=2.1 q=39.4 size=     512KiB time=00:00:02.23 bitrate=1878.2kbits/s speed=0.017x elapsed=0:02:11.05    \nframe=  272 fps=2.1 q=32.6 size=     512KiB time=00:00:02.25 bitrate=1864.3kbits/s speed=0.0171x elapsed=0:02:11.57    \nframe=  273 fps=2.1 q=39.3 size=     512KiB time=00:00:02.25 bitrate=1857.4kbits/s speed=0.0171x elapsed=0:02:12.08    \nframe=  274 fps=2.1 q=40.4 size=     512KiB time=00:00:02.26 bitrate=1850.6kbits/s speed=0.0171x elapsed=0:02:12.60    \nframe=  276 fps=2.1 q=38.9 size=     512KiB time=00:00:02.28 bitrate=1837.1kbits/s speed=0.0172x elapsed=0:02:13.11    \nframe=  277 fps=2.1 q=32.1 size=     512KiB time=00:00:02.29 bitrate=1830.4kbits/s speed=0.0171x elapsed=0:02:13.64    \nframe=  278 fps=2.1 q=37.8 size=     512KiB time=00:00:02.30 bitrate=1823.8kbits/s speed=0.0171x elapsed=0:02:14.16    \nframe=  280 fps=2.1 q=38.1 size=     512KiB time=00:00:02.31 bitrate=1810.6kbits/s speed=0.0172x elapsed=0:02:14.68    \nframe=  281 fps=2.1 q=31.7 size=     512KiB time=00:00:02.32 bitrate=1804.2kbits/s speed=0.0172x elapsed=0:02:15.21    \nframe=  283 fps=2.1 q=39.6 size=     512KiB time=00:00:02.34 bitrate=1791.3kbits/s speed=0.0173x elapsed=0:02:15.72    \nframe=  283 fps=2.1 q=39.6 size=     512KiB time=00:00:02.34 bitrate=1791.3kbits/s speed=0.0172x elapsed=0:02:16.24    \nframe=  286 fps=2.1 q=31.3 size=     512KiB time=00:00:02.36 bitrate=1772.4kbits/s speed=0.0173x elapsed=0:02:16.76    \nframe=  286 fps=2.1 q=31.3 size=     512KiB time=00:00:02.36 bitrate=1772.4kbits/s speed=0.0172x elapsed=0:02:17.29    \nframe=  289 fps=2.1 q=35.6 size=     512KiB time=00:00:02.39 bitrate=1753.9kbits/s speed=0.0174x elapsed=0:02:17.81    \nframe=  290 fps=2.1 q=34.8 size=     512KiB time=00:00:02.40 bitrate=1747.8kbits/s speed=0.0174x elapsed=0:02:18.32    \nframe=  291 fps=2.1 q=30.7 size=     512KiB time=00:00:02.40 bitrate=1741.7kbits/s speed=0.0173x elapsed=0:02:18.85    \nframe=  294 fps=2.1 q=32.3 size=     512KiB time=00:00:02.43 bitrate=1723.8kbits/s speed=0.0175x elapsed=0:02:19.37    \nframe=  295 fps=2.1 q=33.3 size=     512KiB time=00:00:02.44 bitrate=1717.9kbits/s speed=0.0175x elapsed=0:02:19.89    \nframe=  295 fps=2.1 q=33.3 size=     512KiB time=00:00:02.44 bitrate=1717.9kbits/s speed=0.0174x elapsed=0:02:20.41    \nframe=  296 fps=2.1 q=30.6 size=     512KiB time=00:00:02.45 bitrate=1712.1kbits/s speed=0.0174x elapsed=0:02:20.95    \n[mp4 @ 000002503a329bc0] Starting second pass: moving the moov atom to the beginning of the file\n[out#0/mp4 @ 000002503a329ac0] video:728KiB audio:0KiB subtitle:0KiB other streams:0KiB global headers:2KiB muxing overhead: 0.912270%\nframe=  300 fps=2.1 q=33.9 Lsize=     735KiB time=00:00:02.48 bitrate=2424.2kbits/s speed=0.0176x elapsed=0:02:21.42    \nx265 [info]: frame I:      2, Avg QP:40.76  kb/s: 28919.04\nx265 [info]: frame P:     59, Avg QP:37.37  kb/s: 5984.17 \nx265 [info]: frame B:    239, Avg QP:42.30  kb/s: 1271.29 \nx265 [info]: Weighted P-Frames: Y:0.0% UV:0.0%\n\nencoded 300 frames in 141.46s (2.12 fps), 2382.47 kb/s, Avg QP:41.32\n",
  "seconds": 141.71390414237976,
  "probe_out": {}
}